<svg xmlns="http://www.w3.org/2000/svg" width="540" height="440" fill="none" viewBox="0 0 540 440"><path fill="#C0121D" fill-rule="evenodd" d="M68.127 353.458h20.894v3.243l-36.092 81.942h-9.226L7.25 356.701v-3.243h20.893l19.936 47.646h.61l19.438-47.646Zm64.767 18.768h9.97v-18.768h-41.44v18.768h9.962v46.567h-10.811v18.889h43.134v-18.889h-10.815v-46.567Zm49.865 46.081v-64.849h-21.882v84.224h52.737v-19.375h-30.855Zm99.799-23.635-43.013-41.576h-.128v-.222h-19.243v18.449h11.469v66.359h22.485v-41.39l42.893 41.39h7.778v-84.224h-22.241v41.214Zm72.222-22.446h9.966v-18.768H323.31v18.768h9.966v46.567h-10.827v18.889h43.15v-18.889H354.78v-46.567Zm73.92-18.768v55.825c-.02 1.732-.382 3.219-1.11 4.489a9.334 9.334 0 0 1-2.966 3.196c-1.239.864-2.613 1.483-4.127 1.907-1.522.444-3.079.638-4.683.638-1.596 0-3.154-.194-4.695-.638-1.542-.424-2.912-1.043-4.173-1.907a9.554 9.554 0 0 1-2.994-3.196c-.732-1.27-1.113-2.757-1.129-4.489v-55.825h-20.784v56.191c.019 3.706.63 7.105 1.837 10.149 1.219 3.063 2.896 5.769 5.049 8.144a30.44 30.44 0 0 0 7.494 5.991c2.85 1.627 5.91 2.849 9.215 3.691a40.873 40.873 0 0 0 10.18 1.268 41.04 41.04 0 0 0 10.223-1.268c3.289-.842 6.364-2.064 9.183-3.691a30.044 30.044 0 0 0 7.459-5.991c2.122-2.375 3.776-5.081 4.975-8.144 1.191-3.044 1.803-6.443 1.818-10.149v-56.191H428.7Zm102.174 49.012c-1.219-2.842-2.9-5.177-5.065-6.96-2.153-1.803-4.629-3.212-7.455-4.228-2.815-1.028-5.863-1.81-9.094-2.344a170.988 170.988 0 0 0-9.962-1.312 59.874 59.874 0 0 1-5.408-.801c-1.681-.324-3.141-.779-4.402-1.382-1.25-.623-2.211-1.421-2.854-2.441-.662-1.032-.93-2.332-.825-3.921.12-1.42.631-2.67 1.533-3.706.896-1.066 2.048-1.907 3.465-2.565 1.402-.662 2.94-1.106 4.575-1.347a19.93 19.93 0 0 1 4.951-.082c1.632.203 3.134.619 4.505 1.246 1.362.642 2.452 1.522 3.289 2.655.806 1.098 1.23 2.437 1.25 4.045h20.66c.023-4.033-.689-7.623-2.126-10.768-1.437-3.126-3.422-5.832-5.952-8.082-2.527-2.23-5.423-4.037-8.693-5.38a39.655 39.655 0 0 0-10.32-2.686 43.038 43.038 0 0 0-10.877 0 39.45 39.45 0 0 0-10.309 2.686 30.522 30.522 0 0 0-8.662 5.38c-2.518 2.25-4.488 4.956-5.905 8.082-1.413 3.145-2.079 6.735-2.036 10.768.074 4.551.841 8.408 2.32 11.577 1.479 3.169 3.57 5.734 6.283 7.712 2.686 1.981 5.91 3.508 9.678 4.555 3.745 1.039 7.946 1.701 12.578 2.024 2.137.117 4.15.296 6.015.584 1.88.261 3.519.689 4.955 1.238 1.429.545 2.539 1.304 3.345 2.243.813.969 1.214 2.172 1.237 3.636-.023 1.405-.509 2.608-1.479 3.612-.946 1.004-2.207 1.799-3.784 2.382-1.58.585-3.328.962-5.209 1.145a26.806 26.806 0 0 1-5.676-.113c-1.876-.26-3.624-.708-5.181-1.386-1.577-.689-2.85-1.568-3.799-2.654-.954-1.094-1.472-2.422-1.48-3.948h-21.022c-.019 4.111.724 7.763 2.231 10.97 1.518 3.189 3.593 5.914 6.248 8.187 2.655 2.285 5.715 4.096 9.137 5.454 3.414 1.367 7.046 2.282 10.861 2.753 3.823.455 7.626.455 11.457.035a45.575 45.575 0 0 0 10.897-2.628c3.441-1.328 6.524-3.095 9.21-5.295 2.702-2.191 4.8-4.835 6.357-7.902 1.542-3.072 2.332-6.568 2.375-10.496-.023-4.181-.654-7.7-1.837-10.542ZM324.419 29.354l-16.438-3.735L306.934.318 272.607.296V.293l-2.154.002-2.155-.002v.003l-34.326.022-1.048 25.3-16.437 3.736-5.418-25.107-53.364 18.006-28.431 220.787 87.089 52.153 51.935.121v.011l2.155-.005 2.154.005v-.011l51.935-.121 87.09-52.153L383.2 22.253 329.837 4.247l-5.418 25.107Zm-53.966-2.317 16.069.035.139 23.25 51.19 11.258 5.18-23.288 13.058 3.86 21.93 181.551-62.417 37.518-42.995-.193v-.02l-2.154.009-2.155-.009v.02l-42.994.193-62.417-37.518 21.929-181.55 13.059-3.861 5.18 23.288 51.19-11.258.139-23.25 16.069-.035Z" clip-rule="evenodd"/></svg>